<?xml version="1.0" encoding="UTF-8"?>
<svg id="Layer_2" data-name="Layer 2" xmlns="http://www.w3.org/2000/svg" viewBox="0 0 72 72">
  <defs>
    <style>
      .cls-1 {
        fill: #4d4d4d;
      }

      .cls-1, .cls-2 {
        stroke-width: 0px;
      }

      .cls-2 {
        fill: #fff;
      }
    </style>
  </defs>
  <g id="Layer_1-2" data-name="Layer 1">
    <circle class="cls-2" cx="36" cy="36" r="36"/>
    <path class="cls-1" d="M29.38,49.4l-.54.55c-1.38,1.46-2.41,2.44-3.09,2.9-.67.47-1.41.7-2.23.7s-1.51-.33-2.03-1c-.51-.65-.77-1.53-.77-2.6,0-.69.18-1.87.55-3.53l3.42-15,.31-1.54,3.17-13.88-4.33,1.72-2.53,12.16-.31,1.54-2.94,14.46c-.45,2.17-.68,3.82-.68,4.96,0,1.53.44,2.77,1.28,3.72.86.95,2.01,1.42,3.45,1.42,1.14,0,2.31-.45,3.5-1.33,1.18-.88,2.67-2.41,4.44-4.58l-.68-.68Z"/>
    <path class="cls-1" d="M52.53,28.82l-4.24,16.49c-.45,1.8-.68,3.22-.68,4.24,0,.9.2,1.68.59,2.34.39.66.87.99,1.44.99.87,0,2.31-1.07,4.33-3.2l.63.63-.5.59c-1.59,1.83-2.82,3.12-3.67,3.85s-1.6,1.1-2.23,1.1c-.96,0-1.8-.5-2.5-1.51-.71-1.01-1.06-2.17-1.06-3.49,0-.96.36-3.14,1.08-6.53l.36-1.71c-1.11,2.58-2.6,5.06-4.46,7.44-3.13,3.97-6.11,5.95-8.97,5.95-1.71,0-3.06-.62-4.06-1.85-.99-1.23-1.49-2.88-1.49-4.96,0-2.82.8-5.78,2.41-8.88,1.61-3.09,3.61-5.64,5.99-7.64,2.39-2,4.71-3,6.96-3,2.37,0,4.15.87,5.32,2.61l.5-1.71,4.24-1.76ZM47.35,34.58c-.36-1.14-.97-2.03-1.83-2.68-.86-.65-1.84-.97-2.95-.97-1.32,0-2.72.61-4.19,1.83-1.47,1.22-2.82,2.91-4.06,5.07-.96,1.71-1.77,3.61-2.41,5.68-.65,2.07-.97,3.79-.97,5.14,0,1.53.29,2.73.88,3.61.59.87,1.42,1.31,2.5,1.31,1.38,0,2.82-.65,4.33-1.94,1.5-1.29,2.99-3.14,4.46-5.54.9-1.38,1.61-2.76,2.12-4.15.51-1.38,1.08-3.3,1.71-5.77l.41-1.58Z"/>
  </g>
</svg>