<svg width="50" height="50" viewBox="0 0 50 50" fill="none" xmlns="http://www.w3.org/2000/svg">
<path d="M35.447 12.093C34.9605 12.093 34.4848 12.2373 34.0803 12.5076C33.6758 12.7779 33.3604 13.1621 33.1743 13.6116C32.9881 14.0611 32.9393 14.5557 33.0343 15.0329C33.1292 15.5101 33.3635 15.9484 33.7075 16.2925C34.0516 16.6365 34.4899 16.8708 34.9671 16.9657C35.4443 17.0607 35.9389 17.0119 36.3884 16.8257C36.8379 16.6396 37.2221 16.3242 37.4924 15.9197C37.7627 15.5152 37.907 15.0395 37.907 14.553C37.907 13.9006 37.6478 13.2749 37.1865 12.8135C36.7251 12.3522 36.0994 12.093 35.447 12.093ZM44.877 17.054C44.8371 15.3531 44.5186 13.6703 43.934 12.0725C43.4127 10.7054 42.6015 9.46752 41.556 8.444C40.5409 7.39322 39.3001 6.58706 37.9275 6.0865C36.3339 5.48413 34.6492 5.15828 32.946 5.123C30.773 5 30.076 5 24.5 5C18.924 5 18.227 5 16.054 5.123C14.3508 5.15828 12.6661 5.48413 11.0725 6.0865C9.70244 6.59213 8.46271 7.3976 7.444 8.444C6.39322 9.45911 5.58706 10.6999 5.0865 12.0725C4.48413 13.6661 4.15828 15.3508 4.123 17.054C4 19.227 4 19.924 4 25.5C4 31.076 4 31.773 4.123 33.946C4.15828 35.6492 4.48413 37.3339 5.0865 38.9275C5.58706 40.3001 6.39322 41.5409 7.444 42.556C8.46271 43.6024 9.70244 44.4079 11.0725 44.9135C12.6661 45.5159 14.3508 45.8417 16.054 45.877C18.227 46 18.924 46 24.5 46C30.076 46 30.773 46 32.946 45.877C34.6492 45.8417 36.3339 45.5159 37.9275 44.9135C39.3001 44.4129 40.5409 43.6068 41.556 42.556C42.6061 41.5363 43.4181 40.2973 43.934 38.9275C44.5186 37.3297 44.8371 35.6469 44.877 33.946C44.877 31.773 45 31.076 45 25.5C45 19.924 45 19.227 44.877 17.054ZM41.187 33.7C41.1721 35.0013 40.9364 36.2906 40.49 37.513C40.1627 38.4051 39.637 39.2113 38.9525 39.8705C38.2876 40.548 37.4831 41.0727 36.595 41.408C35.3726 41.8544 34.0833 42.0901 32.782 42.105C30.732 42.2075 29.9735 42.228 24.582 42.228C19.1905 42.228 18.432 42.228 16.382 42.105C15.0308 42.1303 13.6854 41.9222 12.405 41.49C11.5559 41.1376 10.7883 40.6142 10.15 39.9525C9.46958 39.2939 8.95043 38.4871 8.633 37.595C8.13251 36.3551 7.85491 35.0365 7.813 33.7C7.813 31.65 7.69 30.8915 7.69 25.5C7.69 20.1085 7.69 19.35 7.813 17.3C7.82219 15.9697 8.06505 14.6513 8.5305 13.405C8.8914 12.5397 9.44534 11.7684 10.15 11.15C10.7728 10.4451 11.5425 9.88535 12.405 9.51C13.6546 9.05909 14.9716 8.82341 16.3 8.813C18.35 8.813 19.1085 8.69 24.5 8.69C29.8915 8.69 30.65 8.69 32.7 8.813C34.0013 8.82793 35.2906 9.06361 36.513 9.51C37.4446 9.85574 38.2807 10.4178 38.9525 11.15C39.6243 11.7797 40.1492 12.5496 40.49 13.405C40.9456 14.6533 41.1814 15.9711 41.187 17.3C41.2895 19.35 41.31 20.1085 41.31 25.5C41.31 30.8915 41.2895 31.65 41.187 33.7ZM24.5 14.9835C22.4209 14.9876 20.3897 15.6078 18.6629 16.7658C16.9362 17.9238 15.5915 19.5677 14.7986 21.4897C14.0058 23.4117 13.8005 25.5256 14.2086 27.5642C14.6167 29.6029 15.6199 31.4748 17.0915 32.9435C18.563 34.4122 20.4369 35.4118 22.4764 35.8159C24.5158 36.22 26.6293 36.0106 28.5497 35.214C30.4702 34.4174 32.1114 33.0695 33.2661 31.3405C34.4207 29.6115 35.037 27.5791 35.037 25.5C35.0397 24.1165 34.7689 22.746 34.24 21.4676C33.7112 20.1891 32.9348 19.0278 31.9556 18.0504C30.9763 17.073 29.8135 16.2989 28.534 15.7726C27.2545 15.2463 25.8835 14.9781 24.5 14.9835ZM24.5 32.3265C23.1498 32.3265 21.83 31.9261 20.7074 31.176C19.5848 30.4259 18.7098 29.3598 18.1931 28.1124C17.6765 26.865 17.5413 25.4924 17.8047 24.1682C18.0681 22.844 18.7182 21.6276 19.6729 20.6729C20.6276 19.7182 21.844 19.0681 23.1682 18.8047C24.4924 18.5413 25.865 18.6765 27.1124 19.1931C28.3598 19.7098 29.4259 20.5848 30.176 21.7074C30.9261 22.83 31.3265 24.1498 31.3265 25.5C31.3265 26.3965 31.1499 27.2842 30.8069 28.1124C30.4638 28.9406 29.961 29.6932 29.3271 30.3271C28.6932 30.961 27.9406 31.4638 27.1124 31.8069C26.2842 32.1499 25.3965 32.3265 24.5 32.3265Z" fill="white"/>
</svg>
