<svg width="572" height="258" viewBox="0 0 572 258" fill="none" xmlns="http://www.w3.org/2000/svg">
<g clip-path="url(#clip0_21_52)">
<path d="M197.922 89.9261C197.922 82.0365 200.054 74.1843 204.318 66.3322C208.581 58.48 214.079 52.1235 220.811 47.1878C227.543 42.2895 234.425 39.8217 241.456 39.8217C248.824 39.8217 254.771 42.2522 259.259 47.113C263.784 51.9739 266.028 58.2556 266.028 65.9582C266.028 74.3713 263.934 82.5226 259.782 90.4122C255.631 98.3017 250.133 104.77 243.364 109.818C236.557 114.866 229.713 117.371 222.794 117.371C215.351 117.371 209.329 114.866 204.767 109.818C200.204 104.77 197.922 98.1522 197.922 89.8887V89.9261ZM254.21 61.0226C254.21 55.7504 252.901 51.413 250.32 48.0104C247.74 44.6078 244.411 42.8878 240.409 42.8878C236.744 42.8878 233.191 44.0843 229.825 46.44C226.459 48.7956 223.355 52.273 220.55 56.8348C217.408 62.1069 214.79 68.2391 212.733 75.2313C210.676 82.2608 209.629 88.4678 209.629 93.8895C209.629 100.358 210.9 105.369 213.443 108.883C215.987 112.398 219.615 114.156 224.364 114.156C231.994 114.156 238.689 108.846 244.486 98.2643C247.478 92.8426 249.834 86.7478 251.592 79.98C253.35 73.2495 254.21 66.9304 254.21 61.06V61.0226Z" fill="#EE9EC6"/>
<path d="M382.904 94.7869L385.261 96.7687C379.838 103.948 374.527 109.145 369.365 112.361C364.204 115.576 358.632 117.147 352.685 117.147C345.579 117.147 339.894 114.791 335.593 110.043C331.292 105.294 329.16 99.0495 329.16 91.2348C329.16 83.42 331.255 75.3435 335.406 67.2295C339.557 59.1156 344.793 52.4226 351.039 47.113C357.323 41.8035 363.494 39.1487 369.627 39.1487C373.218 39.1487 376.172 40.1956 378.491 42.2896C380.81 44.3835 381.969 47.113 381.969 50.4409C381.969 57.2087 378.304 63.9391 370.936 70.6695C363.568 77.4374 353.545 83.1582 340.829 87.9069C340.754 88.6174 340.679 89.4026 340.679 90.2626C340.679 96.32 342.325 101.256 345.691 105.07C349.02 108.883 353.321 110.79 358.594 110.79C362.708 110.79 366.71 109.482 370.562 106.902C374.415 104.322 378.529 100.246 382.904 94.7495V94.7869ZM341.016 83.233C340.941 83.9061 341.652 84.4295 342.288 84.1304C351.039 80.0922 357.846 75.6426 362.671 70.7069C366.074 67.1922 368.842 63.4156 370.936 59.4148C373.031 55.3765 374.078 51.7496 374.078 48.4965C374.078 44.3835 372.208 42.3269 368.43 42.3269C362.746 42.3269 356.986 46.8139 351.152 55.7878C345.616 64.313 342.25 73.4739 341.016 83.233Z" fill="#EE9EC6"/>
<path d="M403.885 100.059V101.517C403.624 104.621 402.053 107.911 399.248 111.389C396.069 115.24 392.104 118.456 387.242 120.998L385.971 119.054C389.561 116.773 392.516 114.492 394.797 112.137C397.079 109.818 398.612 107.575 399.36 105.481V105.107H399.323C397.714 106.341 396.218 106.977 394.872 106.977C393.301 106.977 392.104 106.453 391.282 105.481C390.421 104.471 389.973 103.2 389.973 101.592C389.973 99.2739 390.721 97.2548 392.217 95.6096C393.713 93.8896 395.508 93.067 397.677 93.067C399.435 93.067 400.893 93.74 402.128 95.0487C403.324 96.4322 403.885 98.0774 403.885 100.059Z" fill="#E05299"/>
<path d="M330.132 49.693C330.132 61.3591 323.213 76.727 309.338 95.8339C305.149 101.63 300.661 106.79 295.948 111.351C293.742 113.37 291.984 114.791 290.6 115.614C289.254 116.474 287.907 116.885 286.598 116.885C284.504 116.885 282.97 116.025 281.998 114.38C281.026 112.697 280.278 109.557 279.754 104.92L272.872 49.5435C263.223 53.6565 240.259 64.4626 215.463 58.2557L217.819 53.0583C217.819 53.0583 218.567 58.2931 254.172 50.7026C257.837 49.9174 273.807 42.8878 277.248 41.3174L283.943 38.2513V41.6913C284.205 54.4791 284.953 67.94 286.187 82.0365C286.86 89.4026 287.496 94.8617 288.019 98.4139C288.543 101.966 289.141 104.359 289.852 105.556C290.563 106.79 291.535 107.425 292.732 107.425C295.986 107.425 301.783 101.218 310.123 88.8791C317.566 77.9983 321.268 67.9774 321.268 58.7791C321.268 55.5261 320.894 52.8339 320.109 50.7026C319.323 48.5339 317.827 46.3652 315.621 44.1965L325.495 34.9609C328.561 38.9991 330.095 43.9348 330.095 49.693H330.132Z" fill="#EE9EC6"/>
<path d="M340.829 84.8035C340.829 84.8035 317.416 85.3269 301.297 102.49L296.023 109.444C296.023 109.444 318.501 91.2348 340.829 87.9443V84.8035Z" fill="#EE9EC6"/>
<path d="M569.606 185.423C565.231 190.957 561.116 195.033 557.264 197.613C553.412 200.193 549.41 201.464 545.296 201.464C540.023 201.464 535.759 199.557 532.43 195.743C529.064 191.93 527.419 187.031 527.419 180.974C527.419 180.114 527.456 179.291 527.531 178.618C540.247 173.87 550.308 168.149 557.676 161.381C565.006 154.65 568.709 147.883 568.709 141.152C568.709 137.824 567.549 135.095 565.231 133.001C562.912 130.87 559.92 129.823 556.329 129.823C550.196 129.823 543.987 132.477 537.741 137.787C531.458 143.096 526.259 149.79 522.108 157.903C517.919 166.017 515.862 174.019 515.862 181.909C515.862 184.713 516.124 187.33 516.685 189.723C512.683 193.986 509.728 196.753 507.746 198.136C505.801 199.483 503.632 200.156 501.239 200.156C498.845 200.156 496.825 199.183 495.329 197.276C493.833 195.332 493.085 192.79 493.085 189.649C493.085 187.63 493.609 184.227 494.694 179.403L504.679 135.618H525.96L526.895 131.131H505.577L514.778 90.6739L502.174 95.6469L494.806 131.131H482.202L481.267 135.618H493.871L485.344 177.833C485.007 179.366 484.745 180.824 484.521 182.17L478.574 188.976C472.702 195.22 468.513 198.323 465.97 198.323C464.287 198.323 462.903 197.351 461.744 195.444C460.622 193.5 460.061 191.219 460.061 188.602C460.061 185.61 460.697 181.497 462.006 176.225L474.385 128.14L462.006 133.263L460.585 138.236C457.144 133.15 451.982 130.608 445.063 130.608C438.144 130.608 431.712 133.524 424.755 139.357C417.761 145.19 411.927 152.631 407.252 161.643C402.577 170.691 400.22 179.291 400.22 187.555C400.22 189.163 400.333 190.696 400.52 192.116C396.032 196.529 392.703 198.735 390.496 198.735C388.926 198.735 387.654 197.837 386.682 196.08C385.709 194.323 385.223 192.042 385.223 189.237C385.223 184.975 386.195 179.254 388.14 172.15L399.697 128.925L386.794 134.31L378.528 180.301C378.192 182.058 377.93 183.666 377.705 185.124C373.517 190.434 369.44 194.397 365.55 197.015C361.549 199.707 357.36 201.09 353.059 201.09C348.084 201.09 344.045 199.071 340.978 195.033C337.912 190.995 336.378 185.76 336.378 179.254C336.378 173.832 337.201 168.448 338.809 163.176C340.417 157.866 342.699 152.856 345.579 148.182C348.458 143.47 351.563 139.843 354.854 137.189C358.145 134.571 361.399 133.263 364.653 133.263C366.747 133.263 368.43 133.936 369.702 135.282C370.973 136.665 371.609 138.572 371.609 141.003C371.609 147.92 368.767 152.669 363.082 155.211C364.129 156.258 365.289 156.782 366.635 156.782C369.59 156.782 372.395 155.211 374.975 152.108C377.556 149.004 378.865 145.751 378.865 142.311C378.865 138.572 377.631 135.543 375.162 133.3C372.694 131.094 369.477 129.972 365.438 129.972C359.492 129.972 353.283 132.627 346.813 137.974C340.38 143.321 335.107 150.089 330.993 158.24C326.879 166.391 324.821 174.393 324.821 182.283C324.821 183.516 324.859 184.713 325.008 185.835C320.745 191.182 316.706 195.108 312.966 197.613C309.113 200.193 305.149 201.464 300.998 201.464C295.761 201.464 291.46 199.557 288.132 195.743C284.803 191.93 283.12 187.031 283.12 180.974C283.12 180.114 283.158 179.291 283.27 178.618C295.986 173.87 306.009 168.149 313.377 161.381C320.745 154.65 324.41 147.883 324.41 141.152C324.41 137.824 323.251 135.095 320.932 133.001C318.613 130.87 315.658 129.823 312.068 129.823C305.934 129.823 299.726 132.477 293.443 137.787C287.197 143.096 281.961 149.79 277.809 157.903C273.658 166.017 271.563 174.019 271.563 181.909C271.563 184.264 271.75 186.47 272.199 188.564C267.225 194.958 263.223 198.548 260.194 199.296C258.773 199.67 257.389 199.408 256.08 198.51C254.771 197.613 253.873 196.342 253.462 194.622C252.265 189.91 252.452 182.357 254.023 171.925C255.556 161.418 258.174 150.537 261.802 139.208L262.288 137.413L256.192 138.946C253.462 142.461 249.46 144.891 244.186 146.237C242.316 146.686 240.185 146.948 237.754 147.023C237.978 143.919 237.791 141.264 237.193 138.983C236.37 135.693 234.911 133.263 232.779 131.617C230.648 129.972 228.291 129.449 225.748 130.122C223.28 130.72 221.484 132.178 220.325 134.422C219.166 136.665 218.979 139.32 219.727 142.236C221.297 148.518 225.973 152.444 233.714 154.052C233.527 155.884 233.191 157.754 232.705 159.736C229.376 173.309 219.988 184.75 207.534 191.144C203.944 193.014 199.381 195.07 194.743 197.127C196.314 195.594 197.848 193.949 199.344 192.154C204.318 186.283 208.207 179.74 210.975 172.561C213.743 165.382 215.126 158.352 215.126 151.51C215.126 144.667 213.593 139.47 210.526 135.618C207.459 131.767 203.271 129.823 198.035 129.823C191.19 129.823 184.907 132.702 179.147 138.46C173.425 144.181 167.291 153.566 160.821 166.653L169.498 128.925L156.857 134.31L146.46 186.096C143.692 182.619 141.56 179.216 140.064 176.562C140.662 175.253 141.223 173.907 141.747 172.561C144.515 165.382 145.899 158.352 145.899 151.51C145.899 144.667 144.365 139.47 141.298 135.618C138.194 131.767 134.043 129.823 128.807 129.823C121.962 129.823 115.642 132.702 109.919 138.46C104.197 144.181 98.0635 153.566 91.5933 166.653L100.27 128.925L87.6289 134.31L76.2218 191.182C71.4719 195.93 67.9937 198.323 65.7497 198.323C64.0667 198.323 62.6829 197.351 61.5235 195.444C60.4015 193.5 59.8031 191.219 59.8031 188.602C59.8031 185.61 60.4763 181.497 61.7853 176.225L74.1648 128.14L66.6099 131.243C63.5431 132.515 61.2617 135.095 60.3641 138.236C56.9232 133.15 51.762 130.608 44.8429 130.608C37.9239 130.608 31.491 133.524 24.5346 139.357C17.5407 145.19 11.7063 152.631 7.03125 161.643C2.35622 170.691 0 179.291 0 187.555C0 193.575 1.45861 198.398 4.33843 201.988C7.21826 205.615 11.1827 207.41 16.1569 207.41C24.4972 207.41 33.2115 201.614 42.3371 190.023C47.7602 183.105 52.0986 175.889 55.3524 168.336L54.3052 173.346C52.2108 183.255 51.1262 189.611 51.1262 192.416C51.1262 196.267 52.1734 199.67 54.2304 202.586C56.2874 205.54 58.7185 206.998 61.5235 206.998C63.3561 206.998 65.5253 205.914 68.0311 203.783C69.8263 202.212 72.1826 199.819 75.1372 196.603L62.7951 258H69.9011L83.44 203.072C87.8159 206.662 93.4259 208.456 100.27 208.456C111.116 208.456 121.065 202.997 130.116 192.154C132.547 189.312 134.716 186.283 136.586 183.105C139.166 187.555 142.084 191.518 144.739 194.696L132.023 258H139.129L152.668 203.072C157.044 206.662 162.654 208.456 169.498 208.456C170.321 208.456 171.144 208.419 171.967 208.344H172.041C172.041 208.344 172.154 208.344 172.228 208.307C174.659 208.045 177.614 207.335 180.83 206.325C180.868 206.325 180.905 206.288 180.943 206.288C192.2 202.81 206.562 195.93 212.658 191.967C223.99 184.601 232.592 173.421 235.771 160.334C236.295 158.24 236.632 156.183 236.856 154.202C238.651 154.164 240.297 153.94 241.83 153.566C245.159 152.706 248.001 151.51 250.358 149.939C252.714 148.369 254.995 146.125 257.239 143.171L256.379 145.041C253.537 151.771 251.255 157.53 249.497 162.316C247.702 167.102 246.318 171.327 245.346 174.954C242.578 184.713 241.905 192.416 243.326 197.95C244.149 201.315 245.795 203.745 248.188 205.203C250.582 206.624 253.462 206.923 256.753 206.101C260.68 205.129 264.495 202.511 268.197 198.249C270.105 196.117 271.75 194.136 273.172 192.378C274.219 195.519 275.827 198.323 277.996 200.679C282.297 205.428 287.982 207.783 295.088 207.783C301.072 207.783 306.608 206.176 311.806 202.997C316.332 200.193 320.969 195.856 325.682 190.023C326.654 194.136 328.487 197.688 331.18 200.679C335.443 205.428 340.941 207.783 347.673 207.783C353.807 207.783 359.417 206.063 364.466 202.586C368.58 199.782 372.769 195.594 377.107 190.023C376.995 191.107 376.957 192.004 376.957 192.79C376.957 196.94 377.892 200.343 379.763 203.11C381.67 205.876 383.951 207.26 386.682 207.26C388.701 207.26 390.87 206.213 393.264 204.156C395.134 202.549 397.789 199.707 401.305 195.706C402.053 198.099 403.138 200.193 404.559 201.988C407.439 205.615 411.403 207.41 416.377 207.41C424.718 207.41 433.432 201.614 442.558 190.023C447.981 183.105 452.319 175.889 455.573 168.336L454.526 173.346C452.431 183.255 451.347 189.611 451.347 192.416C451.347 196.267 452.394 199.67 454.451 202.586C456.508 205.54 458.939 206.998 461.744 206.998C463.577 206.998 465.746 205.914 468.252 203.783C470.757 201.614 474.31 197.875 478.985 192.528L480.407 190.845L483.735 187.33C483.473 189.237 483.361 190.883 483.361 192.266C483.361 196.753 484.633 200.343 487.101 203.11C489.607 205.876 492.973 207.26 497.162 207.26C500.491 207.26 503.894 205.951 507.372 203.371C510.215 201.24 513.693 197.8 517.732 193.089C518.779 195.968 520.313 198.473 522.295 200.679C526.596 205.428 532.281 207.783 539.387 207.783C545.334 207.783 550.906 206.176 556.067 202.997C561.266 199.782 566.54 194.584 572 187.405L569.606 185.423ZM537.854 146.462C543.688 137.488 549.448 133.001 555.17 133.001C558.91 133.001 560.817 135.057 560.817 139.17C560.817 142.423 559.77 146.05 557.676 150.089C555.544 154.127 552.776 157.866 549.373 161.381C544.286 166.541 537.031 171.252 527.531 175.44C528.616 165.12 532.056 155.436 537.854 146.462ZM293.592 146.462C299.427 137.488 305.186 133.001 310.871 133.001C314.649 133.001 316.519 135.057 316.519 139.17C316.519 142.423 315.471 146.05 313.377 150.089C311.283 154.127 308.515 157.866 305.074 161.381C299.988 166.541 292.732 171.252 283.27 175.44C284.317 165.12 287.758 155.436 293.592 146.462ZM57.8582 149.565C56.0256 156.744 54.3426 162.353 52.8466 166.391C51.3506 170.392 49.2936 174.43 46.6756 178.469C42.3745 185.498 38.0361 190.883 33.6603 194.659C29.2844 198.398 25.0582 200.305 21.019 200.305C17.8773 200.305 15.4463 199.034 13.7259 196.491C12.0429 193.949 11.1827 190.434 11.1827 185.984C11.1827 182.021 12.1177 177.01 13.9877 170.99C15.8951 164.933 18.2139 159.399 21.019 154.426C24.6094 148.107 28.5738 143.171 32.8749 139.619C37.1759 136.067 41.2525 134.31 45.1047 134.31C48.3212 134.31 51.201 135.244 53.7068 137.114C54.2304 137.525 54.6792 137.936 55.128 138.385C58.0452 141.227 58.8681 145.602 57.8582 149.565ZM126.151 181.61C118.97 197.314 110.555 205.166 100.906 205.166C94.2487 205.166 89.0875 201.576 85.3849 194.397L86.4321 190.696C87.5915 186.77 88.7883 182.881 90.0599 179.142C91.3315 175.365 92.7153 171.813 94.2113 168.485C98.0636 160.072 102.739 152.444 108.274 145.602C114.071 138.684 119.569 135.207 124.842 135.207C128.096 135.207 130.602 136.478 132.322 139.021C134.08 141.563 134.978 145.153 134.978 149.827C134.978 158.39 132.023 169.009 126.151 181.61ZM170.134 205.166C163.477 205.166 158.315 201.576 154.613 194.397L155.697 190.696C156.819 186.77 158.016 182.881 159.288 179.142C160.559 175.365 161.943 171.813 163.439 168.485C167.291 160.072 172.004 152.444 177.502 145.602C183.299 138.684 188.834 135.207 194.07 135.207C197.324 135.207 199.83 136.478 201.588 139.021C203.308 141.563 204.206 145.153 204.206 149.827C204.206 158.39 201.251 169.009 195.379 181.61C188.198 197.314 179.783 205.166 170.134 205.166ZM224.551 139.283C224.29 138.236 224.364 137.301 224.851 136.441C225.299 135.543 225.935 135.02 226.795 134.796C228.329 134.422 229.75 134.833 231.134 136.104C232.48 137.338 233.49 139.283 234.126 141.825C234.462 143.096 234.687 144.742 234.799 146.686C228.852 145.228 225.412 142.76 224.551 139.283ZM458.079 149.565C456.246 156.744 454.563 162.353 453.067 166.391C451.571 170.392 449.514 174.43 446.896 178.469C442.595 185.498 438.257 190.883 433.881 194.659C429.505 198.398 425.279 200.305 421.239 200.305C418.098 200.305 415.667 199.034 413.946 196.491C412.263 193.949 411.403 190.434 411.403 185.984C411.403 182.021 412.338 177.01 414.208 170.99C416.116 164.933 418.434 159.399 421.239 154.426C424.83 148.107 428.794 143.171 433.095 139.619C437.396 136.067 441.473 134.31 445.325 134.31C448.542 134.31 451.421 135.244 453.927 137.114C456.433 139.021 458.191 141.638 459.238 144.966L458.079 149.565Z" fill="#EE9EC6"/>
<path d="M172.229 208.307C175.183 208.083 178.026 207.41 180.831 206.325C177.614 207.335 174.66 208.045 172.229 208.307Z" fill="#EE9EC6"/>
<path d="M206.936 97.4043L205.365 99.0122C201.326 103.275 198.334 106.117 196.351 107.463C194.406 108.846 192.237 109.519 189.844 109.519C187.45 109.519 185.43 108.547 183.934 106.603C182.438 104.696 181.69 102.153 181.69 99.0122C181.69 96.993 182.214 93.553 183.299 88.7296L193.284 44.9817L194.182 40.4948L203.42 0L190.779 5.01043L183.411 40.4948L182.513 44.9817L173.949 87.1591C172.64 93.4783 171.966 98.3017 171.966 101.63C171.966 106.079 173.238 109.706 175.706 112.473C178.212 115.24 181.578 116.623 185.767 116.623C189.096 116.623 192.499 115.315 195.977 112.735C199.418 110.155 203.757 105.705 208.918 99.3861L206.936 97.4043Z" fill="#EE9EC6"/>
</g>
<defs>
<clipPath id="clip0_21_52">
<rect width="572" height="258" fill="white"/>
</clipPath>
</defs>
</svg>
