<svg width="50" height="50" viewBox="0 0 50 50" fill="none" xmlns="http://www.w3.org/2000/svg">
<path d="M25.1137 4.00189C26.9885 4.00189 33.3458 4.52456 36.3436 11.2379C37.3454 13.4971 37.1068 17.3338 36.9098 20.4168L36.9042 20.5304C36.8814 20.8713 36.8625 21.1838 36.8473 21.4962C36.9894 21.5815 37.2318 21.6667 37.6067 21.6667C38.1749 21.6364 38.8547 21.4394 39.563 21.0967C39.8357 20.961 40.1372 20.8935 40.4417 20.8997C40.7863 20.8997 41.1215 20.9546 41.4056 21.0702C42.2577 21.3523 42.7956 21.9773 42.7956 22.6571C42.824 23.5074 42.057 24.246 40.4985 24.869C40.3299 24.9239 40.1027 25.011 39.847 25.0943C38.9948 25.35 37.6901 25.7761 37.3227 26.6283C37.1522 27.0525 37.2072 27.6206 37.5499 28.272L37.5783 28.3004C37.6919 28.558 40.4682 34.8812 46.6512 35.9019C47.1341 35.9852 47.475 36.4132 47.4466 36.8658C47.4456 37.012 47.4167 37.1566 47.3614 37.2919C46.9069 38.3694 44.9506 39.1629 41.4037 39.6988C41.2919 39.8712 41.1764 40.409 41.0931 40.7783C41.0382 41.1173 40.953 41.46 40.8393 41.8255C40.6954 42.3387 40.328 42.5925 39.7883 42.5925H39.7315C39.3885 42.5748 39.0477 42.5279 38.7127 42.4523C37.9204 42.2819 37.1123 42.1962 36.3019 42.1967C35.7338 42.1967 35.1676 42.2251 34.573 42.3368C33.4367 42.5338 32.4463 43.2155 31.3101 44.0109C29.6947 45.1452 27.8521 46.45 25.0721 46.45C24.9585 46.45 24.8467 46.4216 24.7312 46.4216H24.449C21.669 46.4216 19.8529 45.1433 18.2395 43.9825C17.1051 43.1871 16.1431 42.5073 15.0069 42.3084C14.4251 42.2205 13.8378 42.1737 13.2495 42.1683C12.2269 42.1683 11.4353 42.3368 10.8406 42.4505C10.505 42.5294 10.1626 42.5763 9.81802 42.5906C9.10977 42.5906 8.8276 42.1664 8.71398 41.7952C8.59846 41.4316 8.54354 41.0586 8.45832 40.7215C8.37121 40.3787 8.25948 39.786 8.14396 39.642C4.51177 39.2216 2.55743 38.4263 2.10483 37.3203C2.04277 37.1864 2.00739 37.0417 2.00068 36.8942C1.99194 36.664 2.06815 36.4385 2.2148 36.2608C2.36145 36.0831 2.56832 35.9655 2.79605 35.9303C8.9772 34.9077 11.7534 28.5845 11.8689 28.3175L11.8992 28.2626C12.2401 27.6092 12.3234 27.0411 12.1246 26.6169C11.7553 25.795 10.4505 25.3708 9.60214 25.0849C9.37793 25.0278 9.15878 24.9524 8.9469 24.8595C6.85054 24.0357 6.56648 23.0983 6.6801 22.4488C6.85054 21.5417 7.95648 20.9471 8.89199 20.9471C9.16847 20.9471 9.4033 21.002 9.61729 21.0872C10.4127 21.4546 11.1114 21.6553 11.708 21.6553C12.1511 21.6553 12.4352 21.5417 12.5886 21.4565L12.5015 20.3789C12.3159 17.2997 12.0754 13.4649 13.0828 11.2189C15.9973 4.53972 22.3356 4.02841 24.2066 4.02841L25.0001 4L25.1137 4.00189Z" fill="white"/>
</svg>
