<svg width="231" height="57" viewBox="0 0 231 57" fill="none" xmlns="http://www.w3.org/2000/svg">
<path d="M18.2599 35.2381C18.2596 36.0934 18.4281 36.9404 18.7558 37.7307C19.0835 38.521 19.564 39.2391 20.1699 39.844C20.7757 40.4489 21.495 40.9287 22.2867 41.2561C23.0784 41.5835 23.9269 41.752 24.7838 41.752C26.5322 41.7782 28.2213 41.1193 29.4885 39.9168C30.7558 38.7143 31.5004 37.0639 31.5626 35.3197L31.6374 6H37.6635C37.9372 8.6128 39.1224 11.0464 41.012 12.8752C42.9015 14.704 45.3751 15.8116 48 16.0042V22.9918C47.6558 23.0252 47.3103 23.0424 46.9645 23.0431C45.0996 23.0444 43.2639 22.5817 41.6232 21.697C39.9825 20.8122 38.5887 19.5332 37.5677 17.9757V35.2404C37.5677 37.764 36.8179 40.231 35.4132 42.3293C34.0085 44.4276 32.012 46.063 29.676 47.0287C27.3401 47.9945 24.7697 48.2472 22.2898 47.7548C19.81 47.2625 17.5322 46.0473 15.7443 44.2628C13.9565 42.4783 12.7389 40.2048 12.2456 37.7297C11.7524 35.2546 12.0055 32.689 12.9731 30.3575C13.9407 28.026 15.5792 26.0333 17.6815 24.6312C19.7838 23.2292 22.2554 22.4808 24.7838 22.4808C25.0503 22.4808 25.3121 22.5042 25.5739 22.5205V28.8198C25.3123 28.778 25.0485 28.7515 24.7838 28.7405C23.056 28.7405 21.3987 29.4246 20.1756 30.6427C18.9526 31.8609 18.2636 33.5135 18.2599 35.2381Z" fill="white"/>
<path d="M119.447 14.093C118.96 14.093 118.485 14.2373 118.08 14.5076C117.676 14.7779 117.36 15.1621 117.174 15.6116C116.988 16.0611 116.939 16.5557 117.034 17.0329C117.129 17.5101 117.363 17.9484 117.708 18.2925C118.052 18.6365 118.49 18.8708 118.967 18.9657C119.444 19.0607 119.939 19.0119 120.388 18.8257C120.838 18.6396 121.222 18.3242 121.492 17.9197C121.763 17.5152 121.907 17.0395 121.907 16.553C121.907 15.9006 121.648 15.2749 121.186 14.8135C120.725 14.3522 120.099 14.093 119.447 14.093ZM128.877 19.054C128.837 17.3531 128.519 15.6703 127.934 14.0725C127.413 12.7054 126.601 11.4675 125.556 10.444C124.541 9.39322 123.3 8.58706 121.927 8.0865C120.334 7.48413 118.649 7.15828 116.946 7.123C114.773 7 114.076 7 108.5 7C102.924 7 102.227 7 100.054 7.123C98.3508 7.15828 96.6661 7.48413 95.0725 8.0865C93.7024 8.59213 92.4627 9.3976 91.444 10.444C90.3932 11.4591 89.5871 12.6999 89.0865 14.0725C88.4841 15.6661 88.1583 17.3508 88.123 19.054C88 21.227 88 21.924 88 27.5C88 33.076 88 33.773 88.123 35.946C88.1583 37.6492 88.4841 39.3339 89.0865 40.9275C89.5871 42.3001 90.3932 43.5409 91.444 44.556C92.4627 45.6024 93.7024 46.4079 95.0725 46.9135C96.6661 47.5159 98.3508 47.8417 100.054 47.877C102.227 48 102.924 48 108.5 48C114.076 48 114.773 48 116.946 47.877C118.649 47.8417 120.334 47.5159 121.927 46.9135C123.3 46.4129 124.541 45.6068 125.556 44.556C126.606 43.5363 127.418 42.2973 127.934 40.9275C128.519 39.3297 128.837 37.6469 128.877 35.946C128.877 33.773 129 33.076 129 27.5C129 21.924 129 21.227 128.877 19.054ZM125.187 35.7C125.172 37.0013 124.936 38.2906 124.49 39.513C124.163 40.4051 123.637 41.2113 122.952 41.8705C122.288 42.548 121.483 43.0727 120.595 43.408C119.373 43.8544 118.083 44.0901 116.782 44.105C114.732 44.2075 113.973 44.228 108.582 44.228C103.19 44.228 102.432 44.228 100.382 44.105C99.0308 44.1303 97.6854 43.9222 96.405 43.49C95.5559 43.1376 94.7883 42.6142 94.15 41.9525C93.4696 41.2939 92.9504 40.4871 92.633 39.595C92.1325 38.3551 91.8549 37.0365 91.813 35.7C91.813 33.65 91.69 32.8915 91.69 27.5C91.69 22.1085 91.69 21.35 91.813 19.3C91.8222 17.9697 92.065 16.6513 92.5305 15.405C92.8914 14.5397 93.4453 13.7684 94.15 13.15C94.7728 12.4451 95.5425 11.8853 96.405 11.51C97.6546 11.0591 98.9716 10.8234 100.3 10.813C102.35 10.813 103.108 10.69 108.5 10.69C113.891 10.69 114.65 10.69 116.7 10.813C118.001 10.8279 119.291 11.0636 120.513 11.51C121.445 11.8557 122.281 12.4178 122.952 13.15C123.624 13.7797 124.149 14.5496 124.49 15.405C124.946 16.6533 125.181 17.9711 125.187 19.3C125.289 21.35 125.31 22.1085 125.31 27.5C125.31 32.8915 125.289 33.65 125.187 35.7ZM108.5 16.9835C106.421 16.9876 104.39 17.6078 102.663 18.7658C100.936 19.9238 99.5915 21.5677 98.7986 23.4897C98.0058 25.4117 97.8005 27.5256 98.2086 29.5642C98.6167 31.6029 99.6199 33.4748 101.091 34.9435C102.563 36.4122 104.437 37.4118 106.476 37.8159C108.516 38.22 110.629 38.0106 112.55 37.214C114.47 36.4174 116.111 35.0695 117.266 33.3405C118.421 31.6115 119.037 29.5791 119.037 27.5C119.04 26.1165 118.769 24.746 118.24 23.4676C117.711 22.1891 116.935 21.0278 115.956 20.0504C114.976 19.073 113.813 18.2989 112.534 17.7726C111.254 17.2463 109.884 16.9781 108.5 16.9835ZM108.5 34.3265C107.15 34.3265 105.83 33.9261 104.707 33.176C103.585 32.4259 102.71 31.3598 102.193 30.1124C101.676 28.865 101.541 27.4924 101.805 26.1682C102.068 24.844 102.718 23.6276 103.673 22.6729C104.628 21.7182 105.844 21.0681 107.168 20.8047C108.492 20.5413 109.865 20.6765 111.112 21.1931C112.36 21.7098 113.426 22.5848 114.176 23.7074C114.926 24.83 115.326 26.1498 115.326 27.5C115.326 28.3965 115.15 29.2842 114.807 30.1124C114.464 30.9406 113.961 31.6932 113.327 32.3271C112.693 32.961 111.941 33.4638 111.112 33.8069C110.284 34.1499 109.396 34.3265 108.5 34.3265Z" fill="white"/>
<path d="M192.114 6.00189C193.989 6.00189 200.346 6.52456 203.344 13.2379C204.345 15.4971 204.107 19.3338 203.91 22.4168L203.904 22.5304C203.881 22.8713 203.862 23.1838 203.847 23.4962C203.989 23.5815 204.232 23.6667 204.607 23.6667C205.175 23.6364 205.855 23.4394 206.563 23.0967C206.836 22.961 207.137 22.8935 207.442 22.8997C207.786 22.8997 208.122 22.9546 208.406 23.0702C209.258 23.3523 209.796 23.9773 209.796 24.6571C209.824 25.5074 209.057 26.246 207.498 26.869C207.33 26.9239 207.103 27.011 206.847 27.0943C205.995 27.35 204.69 27.7761 204.323 28.6283C204.152 29.0525 204.207 29.6206 204.55 30.272L204.578 30.3004C204.692 30.558 207.468 36.8812 213.651 37.9019C214.134 37.9852 214.475 38.4132 214.447 38.8658C214.446 39.012 214.417 39.1566 214.361 39.2919C213.907 40.3694 211.951 41.1629 208.404 41.6988C208.292 41.8712 208.176 42.409 208.093 42.7783C208.038 43.1173 207.953 43.46 207.839 43.8255C207.695 44.3387 207.328 44.5925 206.788 44.5925H206.732C206.389 44.5748 206.048 44.5279 205.713 44.4523C204.92 44.2819 204.112 44.1962 203.302 44.1967C202.734 44.1967 202.168 44.2251 201.573 44.3368C200.437 44.5338 199.446 45.2155 198.31 46.0109C196.695 47.1452 194.852 48.45 192.072 48.45C191.958 48.45 191.847 48.4216 191.731 48.4216H191.449C188.669 48.4216 186.853 47.1433 185.239 45.9825C184.105 45.1871 183.143 44.5073 182.007 44.3084C181.425 44.2205 180.838 44.1737 180.249 44.1683C179.227 44.1683 178.435 44.3368 177.841 44.4505C177.505 44.5294 177.163 44.5763 176.818 44.5906C176.11 44.5906 175.828 44.1664 175.714 43.7952C175.598 43.4316 175.544 43.0586 175.458 42.7215C175.371 42.3787 175.259 41.786 175.144 41.642C171.512 41.2216 169.557 40.4263 169.105 39.3203C169.043 39.1864 169.007 39.0417 169.001 38.8942C168.992 38.664 169.068 38.4385 169.215 38.2608C169.361 38.0831 169.568 37.9655 169.796 37.9303C175.977 36.9077 178.753 30.5845 178.869 30.3175L178.899 30.2626C179.24 29.6092 179.323 29.0411 179.125 28.6169C178.755 27.795 177.451 27.3708 176.602 27.0849C176.378 27.0278 176.159 26.9524 175.947 26.8595C173.851 26.0357 173.566 25.0983 173.68 24.4488C173.851 23.5417 174.956 22.9471 175.892 22.9471C176.168 22.9471 176.403 23.002 176.617 23.0872C177.413 23.4546 178.111 23.6553 178.708 23.6553C179.151 23.6553 179.435 23.5417 179.589 23.4565L179.501 22.3789C179.316 19.2997 179.075 15.4649 180.083 13.2189C182.997 6.53972 189.336 6.02841 191.207 6.02841L192 6L192.114 6.00189Z" fill="white"/>
</svg>
