<svg width="50" height="50" viewBox="0 0 50 50" fill="none" xmlns="http://www.w3.org/2000/svg">
<path d="M13.2599 33.2381C13.2596 34.0934 13.4281 34.9404 13.7558 35.7307C14.0835 36.521 14.564 37.2391 15.1699 37.844C15.7757 38.4489 16.495 38.9287 17.2867 39.2561C18.0784 39.5835 18.9269 39.752 19.7838 39.752C21.5322 39.7782 23.2213 39.1193 24.4885 37.9168C25.7558 36.7143 26.5004 35.0639 26.5626 33.3197L26.6374 4H32.6635C32.9372 6.6128 34.1224 9.04641 36.012 10.8752C37.9015 12.704 40.3751 13.8116 43 14.0042V20.9918C42.6558 21.0252 42.3103 21.0424 41.9645 21.0431C40.0996 21.0444 38.2639 20.5817 36.6232 19.697C34.9825 18.8122 33.5887 17.5332 32.5677 15.9757V33.2404C32.5677 35.764 31.8179 38.231 30.4132 40.3293C29.0085 42.4276 27.012 44.063 24.676 45.0287C22.3401 45.9945 19.7697 46.2472 17.2898 45.7548C14.81 45.2625 12.5322 44.0473 10.7443 42.2628C8.95645 40.4783 7.73891 38.2048 7.24564 35.7297C6.75238 33.2546 7.00554 30.689 7.97312 28.3575C8.9407 26.026 10.5792 24.0333 12.6815 22.6312C14.7838 21.2292 17.2554 20.4808 19.7838 20.4808C20.0503 20.4808 20.3121 20.5042 20.5739 20.5205V26.8198C20.3123 26.778 20.0485 26.7515 19.7838 26.7405C18.056 26.7405 16.3987 27.4246 15.1756 28.6427C13.9526 29.8609 13.2636 31.5135 13.2599 33.2381Z" fill="white"/>
</svg>
